<svg width="25" height="24" viewBox="0 0 25 24" fill="none" xmlns="http://www.w3.org/2000/svg">
<path d="M11.4568 1.55738C11.8236 0.814215 12.8834 0.814215 13.2502 1.55738L15.9836 7.09484C16.1291 7.38969 16.4103 7.59415 16.7356 7.64171L22.8497 8.53537C23.6696 8.65521 23.9964 9.66305 23.4028 10.2412L18.9803 14.5488C18.7444 14.7785 18.6368 15.1096 18.6924 15.4342L19.7359 21.5184C19.8761 22.3353 19.0185 22.9583 18.2849 22.5725L12.819 19.698C12.5276 19.5448 12.1794 19.5448 11.8881 19.698L6.42215 22.5725C5.68852 22.9583 4.83097 22.3353 4.97109 21.5184L6.0146 15.4342C6.07026 15.1096 5.9626 14.7785 5.72673 14.5488L1.30419 10.2412C0.7106 9.66305 1.03738 8.65521 1.8573 8.53537L7.97138 7.64171C8.29674 7.59415 8.57792 7.38969 8.72346 7.09484L11.4568 1.55738Z" fill="white" stroke="white" stroke-width="2" stroke-linecap="round" stroke-linejoin="round"/>
</svg>
