<svg width="30" height="30" viewBox="0 0 30 30" fill="none" xmlns="http://www.w3.org/2000/svg">
<path d="M15 2.5C21.9038 2.5 27.5 8.09625 27.5 15C27.5 21.9037 21.9038 27.5 15 27.5C12.791 27.5036 10.6208 26.919 8.71252 25.8062L2.50502 27.5L4.19502 21.29C3.08138 19.3811 2.49633 17.21 2.50002 15C2.50002 8.09625 8.09627 2.5 15 2.5ZM10.74 9.125L10.49 9.135C10.3282 9.14486 10.17 9.18738 10.025 9.26C9.88942 9.33679 9.76564 9.43278 9.65752 9.545C9.50752 9.68625 9.42252 9.80875 9.33127 9.9275C8.86892 10.5286 8.61998 11.2666 8.62377 12.025C8.62627 12.6375 8.78627 13.2337 9.03627 13.7912C9.54752 14.9187 10.3888 16.1125 11.4988 17.2187C11.7663 17.485 12.0288 17.7525 12.3113 18.0012C13.6905 19.2156 15.3341 20.0913 17.1113 20.5587L17.8213 20.6675C18.0525 20.68 18.2838 20.6625 18.5163 20.6512C18.8803 20.6325 19.2358 20.5339 19.5575 20.3625C19.7212 20.2782 19.881 20.1864 20.0363 20.0875C20.0363 20.0875 20.09 20.0525 20.1925 19.975C20.3613 19.85 20.465 19.7612 20.605 19.615C20.7088 19.5075 20.7988 19.3812 20.8675 19.2375C20.965 19.0337 21.0625 18.645 21.1025 18.3212C21.1325 18.0737 21.1238 17.9387 21.12 17.855C21.115 17.7212 21.0038 17.5825 20.8825 17.5237L20.155 17.1975C20.155 17.1975 19.0675 16.7237 18.4025 16.4212C18.3329 16.3909 18.2584 16.3735 18.1825 16.37C18.097 16.3612 18.0106 16.3708 17.9291 16.3982C17.8476 16.4256 17.7729 16.4701 17.71 16.5287C17.7038 16.5262 17.62 16.5975 16.7163 17.6925C16.6644 17.7622 16.5929 17.8149 16.511 17.8438C16.4291 17.8728 16.3404 17.8767 16.2563 17.855C16.1748 17.8332 16.0951 17.8056 16.0175 17.7725C15.8625 17.7075 15.8088 17.6825 15.7025 17.6375C14.9851 17.3244 14.3209 16.9014 13.7338 16.3837C13.5763 16.2462 13.43 16.0962 13.28 15.9512C12.7882 15.4803 12.3597 14.9475 12.005 14.3662L11.9313 14.2475C11.8783 14.1677 11.8355 14.0816 11.8038 13.9912C11.7563 13.8075 11.88 13.66 11.88 13.66C11.88 13.66 12.1838 13.3275 12.325 13.1475C12.4625 12.9725 12.5788 12.8025 12.6538 12.6812C12.8013 12.4437 12.8475 12.2 12.77 12.0112C12.42 11.1562 12.0575 10.305 11.685 9.46C11.6113 9.2925 11.3925 9.1725 11.1938 9.14875C11.1263 9.14125 11.0588 9.13375 10.9913 9.12875C10.8234 9.12041 10.6552 9.12208 10.4875 9.13375L10.74 9.125Z" fill="#EDE9E5"/>
</svg>
