<svg width="171" height="40" viewBox="0 0 171 40" fill="none" xmlns="http://www.w3.org/2000/svg">
<path d="M50 17.0886V5.58291C50 5.49294 49.99 5.40297 49.97 5.323C49.96 5.28302 49.94 5.25303 49.93 5.21305C49.91 5.17306 49.9 5.12308 49.87 5.08309C49.85 5.04311 49.81 5.00312 49.78 4.96314C49.76 4.93315 49.74 4.90316 49.71 4.87317C49.68 4.84318 49.64 4.8132 49.6 4.78321C49.57 4.76321 49.54 4.73323 49.5 4.71323L41.5 0.134949C41.19 -0.0449831 40.81 -0.0449831 40.51 0.134949L25.01 9.00162L9.5 0.134949C9.19 -0.0449831 8.81 -0.0449831 8.51 0.134949L0.5 4.71323C0.46 4.73323 0.44 4.76321 0.4 4.78321C0.36 4.8132 0.32 4.83319 0.29 4.87317C0.26 4.90316 0.24 4.93315 0.22 4.96314C0.19 5.00312 0.16 5.03311 0.13 5.08309C0.11 5.12308 0.09 5.17306 0.07 5.21305C0.06 5.25303 0.04 5.28302 0.03 5.323C0.01 5.40297 0 5.49294 0 5.58291V17.0986C0 17.4585 0.19 17.7883 0.5 17.9683L4.06 20.0075L0.5 22.0467C0.46 22.0667 0.44 22.0967 0.4 22.1167C0.36 22.1467 0.32 22.1667 0.29 22.2067C0.26 22.2367 0.24 22.2666 0.22 22.2966C0.19 22.3366 0.16 22.3666 0.13 22.4166C0.11 22.4566 0.09 22.5066 0.07 22.5465C0.06 22.5865 0.04 22.6165 0.03 22.6565C0.01 22.7365 0 22.8264 0 22.9164V34.4221C0 34.782 0.19 35.1118 0.5 35.2918L8.5 39.8701C8.55 39.9 8.61 39.92 8.66 39.94C8.69 39.94 8.71 39.96 8.74 39.97C8.82 39.99 8.91 40 9 40C9.09 40 9.17 39.99 9.26 39.97C9.29 39.97 9.31 39.95 9.34 39.94C9.4 39.92 9.45 39.9 9.5 39.8701L25 31.0034L40.5 39.8701C40.55 39.9 40.61 39.92 40.66 39.94C40.69 39.94 40.71 39.96 40.74 39.97C40.82 39.99 40.91 40 41 40C41.09 40 41.17 39.99 41.26 39.97C41.29 39.97 41.31 39.95 41.34 39.94C41.4 39.92 41.45 39.9 41.5 39.8701L49.5 35.2918C49.81 35.1118 50 34.782 50 34.4221V22.9164C50 22.8264 49.99 22.7365 49.97 22.6565C49.96 22.6165 49.94 22.5865 49.93 22.5465C49.91 22.5066 49.9 22.4566 49.87 22.4166C49.85 22.3766 49.81 22.3366 49.78 22.2966C49.76 22.2666 49.74 22.2367 49.71 22.2067C49.68 22.1767 49.64 22.1467 49.6 22.1167C49.57 22.0967 49.54 22.0667 49.5 22.0467L45.94 20.0075L49.5 17.9683C49.81 17.7883 50 17.4585 50 17.0986V17.0886ZM41 2.15419L46.99 5.58291L33 13.5799L32.94 13.5399L27.02 10.1512L41.01 2.15419H41ZM26 11.8805L32 15.3093V24.5158L26 21.0871V11.8805ZM24 21.0871L18 24.5158V15.3093L24 11.8805V21.0871ZM9 2.15419L22.99 10.1512L17.07 13.5399L17.01 13.5799L3.01 5.58291L9 2.15419ZM2 7.30226L16 15.3093V24.5158L2 16.5088V7.30226ZM8 37.261L2 33.8323V24.6258L8 28.0545V37.261ZM9 26.3251L8.94 26.2851L3.02 22.8964L6.09 21.1471L12.08 24.5758L9.01 26.3251H9ZM10 37.261V28.0545L14.08 25.7254L16.5 27.1148C16.55 27.1448 16.61 27.1648 16.66 27.1848C16.69 27.1848 16.71 27.2048 16.74 27.2148C16.82 27.2348 16.91 27.2448 17 27.2448C17.09 27.2448 17.17 27.2348 17.26 27.2148C17.29 27.2148 17.31 27.1948 17.34 27.1848C17.4 27.1648 17.45 27.1448 17.5 27.1148L24 23.3962V29.264L10 37.271V37.261ZM40 37.261L26 29.254V23.3862L32.5 27.1048C32.55 27.1348 32.61 27.1548 32.66 27.1748C32.69 27.1748 32.71 27.1948 32.74 27.2048C32.82 27.2248 32.91 27.2348 33 27.2348C33.09 27.2348 33.17 27.2248 33.26 27.2048C33.29 27.2048 33.31 27.1848 33.34 27.1748C33.4 27.1548 33.45 27.1348 33.5 27.1048L35.92 25.7154L40 28.0445V37.251V37.261ZM48 33.8323L42 37.261V28.0545L48 24.6258V33.8323ZM46.99 22.9064L41.07 26.2951L41.01 26.3351L37.94 24.5858L43.93 21.1571L47 22.9064H46.99ZM48 16.5188L34 24.5258V15.3193L48 7.31226V16.5188Z" fill="#4536DD"/>
<path d="M71.62 29.13C70.4067 29.13 69.2713 28.87 68.214 28.35C67.174 27.8127 66.264 27.102 65.484 26.218C64.704 25.3167 64.0973 24.3113 63.664 23.202C63.2307 22.0753 63.014 20.914 63.014 19.718C63.014 18.47 63.2307 17.2913 63.664 16.182C64.0973 15.0553 64.6953 14.0587 65.458 13.192C66.238 12.3253 67.148 11.6493 68.188 11.164C69.2453 10.6613 70.3893 10.41 71.62 10.41C73.4053 10.41 74.8787 10.7827 76.04 11.528C77.2013 12.2733 78.0767 13.244 78.666 14.44L76.872 15.688C76.3347 14.6133 75.598 13.816 74.662 13.296C73.726 12.776 72.6947 12.516 71.568 12.516C70.632 12.516 69.7827 12.7153 69.02 13.114C68.2573 13.5127 67.5987 14.0587 67.044 14.752C66.5067 15.428 66.0907 16.1993 65.796 17.066C65.5187 17.9327 65.38 18.834 65.38 19.77C65.38 20.758 65.536 21.694 65.848 22.578C66.1773 23.4447 66.6367 24.216 67.226 24.892C67.8153 25.5507 68.5 26.0707 69.28 26.452C70.06 26.8333 70.9007 27.024 71.802 27.024C72.8593 27.024 73.8647 26.7553 74.818 26.218C75.7713 25.6807 76.6727 24.8573 77.522 23.748V26.166C75.858 28.142 73.8907 29.13 71.62 29.13ZM77.236 21.564H73.258V19.796H79.212V29H77.236V21.564ZM82.1985 10.02H84.4865V25.49C84.4865 26.2353 84.5905 26.6947 84.7985 26.868C85.0065 27.0413 85.2579 27.128 85.5525 27.128C85.9165 27.128 86.2632 27.0933 86.5925 27.024C86.9219 26.9373 87.1992 26.8507 87.4245 26.764L87.7885 28.636C87.4072 28.792 86.9565 28.922 86.4365 29.026C85.9165 29.13 85.4572 29.182 85.0585 29.182C84.1745 29.182 83.4725 28.9307 82.9525 28.428C82.4499 27.9253 82.1985 27.2233 82.1985 26.322V10.02ZM95.254 29.26C94.2313 29.26 93.304 29.078 92.472 28.714C91.64 28.3327 90.9207 27.8213 90.314 27.18C89.7073 26.5213 89.2393 25.7673 88.91 24.918C88.5807 24.0687 88.416 23.176 88.416 22.24C88.416 21.2867 88.5807 20.3853 88.91 19.536C89.2393 18.6867 89.7073 17.9413 90.314 17.3C90.9207 16.6413 91.64 16.13 92.472 15.766C93.3213 15.3847 94.2487 15.194 95.254 15.194C96.2767 15.194 97.204 15.3847 98.036 15.766C98.868 16.13 99.5873 16.6413 100.194 17.3C100.818 17.9413 101.295 18.6867 101.624 19.536C101.953 20.3853 102.118 21.2867 102.118 22.24C102.118 23.176 101.953 24.0687 101.624 24.918C101.295 25.7673 100.827 26.5213 100.22 27.18C99.6133 27.8213 98.8853 28.3327 98.036 28.714C97.204 29.078 96.2767 29.26 95.254 29.26ZM90.756 22.266C90.756 23.202 90.9553 24.0513 91.354 24.814C91.77 25.5767 92.316 26.1833 92.992 26.634C93.668 27.0673 94.422 27.284 95.254 27.284C96.086 27.284 96.84 27.0587 97.516 26.608C98.2093 26.1573 98.7553 25.5507 99.154 24.788C99.57 24.008 99.778 23.15 99.778 22.214C99.778 21.278 99.57 20.4287 99.154 19.666C98.7553 18.9033 98.2093 18.2967 97.516 17.846C96.84 17.3953 96.086 17.17 95.254 17.17C94.422 17.17 93.668 17.404 92.992 17.872C92.316 18.3227 91.77 18.9293 91.354 19.692C90.9553 20.4547 90.756 21.3127 90.756 22.266ZM111.598 29.26C110.541 29.26 109.579 29 108.712 28.48C107.846 27.96 107.161 27.284 106.658 26.452V29H104.63V10.02H106.918V18.132C107.49 17.248 108.192 16.5373 109.024 16C109.856 15.4627 110.827 15.194 111.936 15.194C112.872 15.194 113.713 15.3933 114.458 15.792C115.204 16.1733 115.836 16.702 116.356 17.378C116.894 18.0367 117.301 18.7907 117.578 19.64C117.873 20.472 118.02 21.3473 118.02 22.266C118.02 23.2193 117.856 24.1207 117.526 24.97C117.214 25.802 116.764 26.5473 116.174 27.206C115.585 27.8473 114.9 28.35 114.12 28.714C113.358 29.078 112.517 29.26 111.598 29.26ZM111.026 27.284C111.702 27.284 112.326 27.1453 112.898 26.868C113.47 26.5907 113.964 26.218 114.38 25.75C114.796 25.282 115.117 24.7447 115.342 24.138C115.568 23.5313 115.68 22.9073 115.68 22.266C115.68 21.382 115.49 20.55 115.108 19.77C114.744 18.99 114.224 18.366 113.548 17.898C112.89 17.4127 112.118 17.17 111.234 17.17C110.593 17.17 109.995 17.3173 109.44 17.612C108.886 17.9067 108.392 18.2967 107.958 18.782C107.542 19.25 107.196 19.77 106.918 20.342V24.268C107.005 24.7013 107.187 25.1 107.464 25.464C107.742 25.828 108.08 26.1487 108.478 26.426C108.877 26.686 109.293 26.894 109.726 27.05C110.177 27.206 110.61 27.284 111.026 27.284ZM126.576 29.26C125.553 29.26 124.617 29.078 123.768 28.714C122.936 28.3327 122.208 27.8213 121.584 27.18C120.977 26.5213 120.5 25.7673 120.154 24.918C119.824 24.0687 119.66 23.1673 119.66 22.214C119.66 20.9313 119.954 19.7613 120.544 18.704C121.133 17.6467 121.948 16.7973 122.988 16.156C124.045 15.5147 125.25 15.194 126.602 15.194C127.971 15.194 129.158 15.5233 130.164 16.182C131.186 16.8233 131.975 17.6727 132.53 18.73C133.102 19.77 133.388 20.8967 133.388 22.11C133.388 22.2833 133.379 22.4567 133.362 22.63C133.362 22.786 133.353 22.9073 133.336 22.994H122.078C122.147 23.878 122.39 24.6667 122.806 25.36C123.239 26.036 123.794 26.5733 124.47 26.972C125.146 27.3533 125.874 27.544 126.654 27.544C127.486 27.544 128.266 27.336 128.994 26.92C129.739 26.504 130.25 25.958 130.528 25.282L132.504 25.828C132.209 26.4867 131.767 27.076 131.178 27.596C130.606 28.116 129.921 28.5233 129.124 28.818C128.344 29.1127 127.494 29.26 126.576 29.26ZM122 21.408H131.256C131.186 20.524 130.935 19.744 130.502 19.068C130.068 18.392 129.514 17.8633 128.838 17.482C128.162 17.1007 127.416 16.91 126.602 16.91C125.804 16.91 125.068 17.1007 124.392 17.482C123.716 17.8633 123.161 18.392 122.728 19.068C122.312 19.744 122.069 20.524 122 21.408ZM136.022 10.54L141.586 18.184L147.15 10.54H149.776L142.886 19.9L149.568 29H146.942L141.586 21.616L136.23 29H133.578L140.26 19.9L133.37 10.54H136.022Z" fill="#15153A"/>
</svg>
